<?xml version="1.0" standalone="no"?>
<svg width="400" height="400"  viewBox="0 0 200 200" xmlns="http://www.w3.org/2000/svg">
  <path fill="#F1C21B" d="M25.5,-40.2C36.1,-27.3,50,-24,57,-15.5C64,-6.9,64.2,7,58.7,17.6C53.3,28.2,42.2,35.6,31.5,41.8C20.8,47.9,10.4,52.9,-1.6,55.1C-13.6,57.3,-27.2,56.7,-33.9,49.2C-40.6,41.8,-40.5,27.4,-46.6,13.9C-52.8,0.3,-65.2,-12.4,-65.3,-24C-65.4,-35.6,-53.2,-46,-40.2,-58.1C-27.3,-70.2,-13.6,-84.1,-3.1,-79.8C7.4,-75.5,14.8,-53.1,25.5,-40.2Z" transform="translate(100 100) scale(1.2)" />
</svg>
